# xmcd
#
# Track frame offsets: 
#        150
#        19805
#        47360
#        69000
#        92932
#        110632
#        133901
#        150399
#        163474
#        192401
#        213468
#        236954
#        257896
#        282757
#        308735
#        320760
#        340606
#
# Disc length: 4719 seconds
#
# Revision: 0
# Processed by: cddbd v1.5.2PL0 Copyright (c) Steve Scherf et al.
# Submitted via: ExactAudioCopy v0.95a4
#
DISCID=fa126d11
DTITLE=Константин Никольский - Ночная Птица - Избранное
DYEAR=2000
DGENRE=Blues
TTITLE0=Ночная Птица
TTITLE1=Мой друг художник и поэт
TTITLE2=В моей душе осадок зла
TTITLE3=Музыкант
TTITLE4=Я сам из тех
TTITLE5=Зеркало мира
TTITLE6=Один взгляд назад
TTITLE7=Когда поймёшь умом
TTITLE8=Воскресенье
TTITLE9=Птицы белые мои
TTITLE10=Прошедший день
TTITLE11=Спи, душа моя
TTITLE12=От любви к любви
TTITLE13=Я бреду по бездорожью
TTITLE14=Опять до времени отложены дела
TTITLE15=Пред чертой меж будущим и прошлым
TTITLE16=Цветок у окна
EXTD=
EXTT0=
EXTT1=
EXTT2=
EXTT3=
EXTT4=
EXTT5=
EXTT6=
EXTT7=
EXTT8=
EXTT9=
EXTT10=
EXTT11=
EXTT12=
EXTT13=
EXTT14=
EXTT15=
EXTT16=
PLAYORDER=
